<?xml version="1.0" encoding="UTF-8"?><svg id="a" xmlns="http://www.w3.org/2000/svg" viewBox="0 0 841 267"><defs><style>.b{fill:#026734;}.c{fill:#92bf20;}.d{fill:#52676e;}</style></defs><path class="d" d="M21.13,8.8c-4.86,0-8.59,1.31-11.2,3.92-2.61,2.62-3.92,6.35-3.92,11.2s1.31,8.59,3.92,11.2c2.61,2.62,6.34,3.92,11.2,3.92s8.58-1.3,11.2-3.92c2.61-2.61,3.92-6.34,3.92-11.2s-1.31-8.58-3.92-11.2c-2.62-2.61-6.35-3.92-11.2-3.92"/><rect class="d" x="9.38" y="65.07" width="23.51" height="133.52"/><path class="d" d="M159.62,158.2c-4.84,6.36-10.31,11.29-16.38,14.66-6.45,3.53-13.59,5.3-21.43,5.3-13.59,0-24.31-4.23-32.03-12.73-7.76-8.5-11.62-20.2-11.62-35.15,0-10.06,1.73-18.68,5.17-25.87,3.45-7.19,8.46-12.65,14.99-16.38,6.53-3.74,14.37-5.59,23.49-5.59,15.44,0,28.04,6.57,37.82,19.63v56.13ZM164.63,65.08l-3.12,16.75c-10.43-13.34-25.09-20.12-44.18-20.12-13.06,0-24.31,2.71-33.71,8.13-9.44,5.42-16.71,13.26-21.84,23.49-5.13,10.31-7.68,22.58-7.68,36.95,0,21.31,5.58,37.98,16.79,50.13,11.17,12.11,26.65,18.19,46.44,18.19,11.37,0,21.23-2.38,29.56-7.14,4.76-2.75,8.95-6.32,12.73-10.55v14.91c0,12.85-3.69,22.83-11.09,29.93-7.35,7.1-18.03,10.63-32.03,10.63-8.79,0-16.75-1.39-23.94-4.19-7.19-2.79-13.84-6.45-20-10.92l-11.79,16.51c7.68,6.16,16.26,10.8,25.74,13.88,9.53,3.08,19.87,4.6,31.08,4.6,20.9,0,37.04-5.58,48.45-16.79,11.37-11.17,17.04-27.06,17.04-47.59v-126.79h-18.48Z"/><path class="d" d="M244.38,69.71c-4.71,3.07-8.71,6.97-12.07,11.66l-2.91-16.41h-18.75v133.52h23.51v-93.56c8.95-13.89,21.97-20.93,39.19-20.93,2.05,0,3.92.14,5.6.42,1.68.28,3.36.61,5.04.98l2.24-22.39c-3.55-.93-7.47-1.4-11.76-1.4-11.76,0-21.79,2.71-30.09,8.12"/><polygon class="d" points="640.57 198.48 695.99 64.95 670.8 64.95 628.81 169.09 586.82 64.95 561.63 64.95 617.05 198.48 640.57 198.48"/><path class="d" d="M726.61,121.78c.78-6.45,2.34-12.28,4.76-17.37,3.65-7.64,8.78-13.55,15.4-17.78,6.61-4.19,14.62-6.28,23.94-6.28,8.58,0,15.97,1.93,22.09,5.75,6.16,3.82,10.88,9.36,14.16,16.63,2.46,5.54,3.98,11.91,4.6,19.05h-84.95ZM817.02,79.78c-11.29-12.11-26.73-18.19-46.31-18.19-13.8,0-25.7,2.83-35.68,8.54-10.02,5.71-17.74,13.8-23.24,24.35-5.5,10.55-8.25,22.99-8.25,37.36,0,21.84,5.95,38.97,17.9,51.37,11.95,12.44,28.66,18.64,50.09,18.64,26.89,0,46.56-10.63,59.08-31.94l-19.59-8.09c-4.47,6.53-9.89,11.62-16.26,15.23-6.32,3.65-14,5.46-22.95,5.46-14.54,0-25.83-4.43-33.88-13.3-6.82-7.51-10.68-17.66-11.7-30.34h107.45c.16-1.68.29-3.29.29-4.76v-4.48c0-21.1-5.67-37.69-16.96-49.84"/><path class="c" d="M310.31,131.68c0,28.13,22.87,51.04,51,51.04s50.91-22.79,51-50.83c0,1.64.08,3.33.2,4.93.08.9.16,1.81.25,2.71,1.15,10.84,4.8,20.98,10.22,29.89-12.73,20.73-35.52,34.65-61.67,34.65-39.95,0-72.34-32.4-72.34-72.39s32.39-72.35,72.34-72.35c26.16,0,48.99,13.92,61.71,34.65,0,.04-.04.04-.04.04-.82,1.36-1.6,2.75-2.38,4.19v.04c-.74,1.39-1.44,2.83-2.09,4.31v.04c-.7,1.48-1.31,3-1.85,4.52s-1.03,3.04-1.52,4.6v.08c-.2.78-.41,1.52-.66,2.3v.08c-.2.82-.41,1.6-.53,2.42-.2.82-.37,1.64-.49,2.46-.29,1.6-.53,3.2-.7,4.84,0,.04-.04.08,0,.12-.08.78-.16,1.6-.25,2.38v.12c-.12,1.64-.2,3.33-.2,5.01-.08-28.08-22.95-50.87-51-50.87s-51,22.87-51,51"/><path class="d" d="M557.04,131.68c0,39.99-32.4,72.39-72.35,72.39-26.15,0-48.98-13.92-61.67-34.69.82-1.4,1.64-2.79,2.38-4.23,3.7-6.98,6.28-14.7,7.52-22.87,0-.25.04-.49.08-.7.45-3.24.7-6.53.7-9.9,0,28.13,22.87,51.04,51,51.04s51-22.91,51-51.04-22.87-51-51-51-51,22.87-51,51c0-13.8-3.94-26.69-10.68-37.69,12.69-20.74,35.52-34.65,61.67-34.65,39.95,0,72.35,32.4,72.35,72.35"/><path class="b" d="M415.16,151.61c1.81,6.32,4.47,12.31,7.84,17.77,6.72-10.98,10.67-23.85,10.67-37.67h0c0-13.83-3.95-26.7-10.67-37.69-6.73,11-10.66,23.88-10.66,37.67,0,6.94.99,13.59,2.83,19.91"/><path class="d" d="M828.84,257.78v-2.68h-11.51v-8.48h10.43v-2.64h-10.43v-7.86h11.44v-2.68h-14.39v24.34h14.46ZM798.58,257.36c1.36-.56,2.56-1.33,3.62-2.33,1.05-1,1.88-2.13,2.49-3.41l-2.57-1.29c-.47,1.02-1.1,1.92-1.9,2.71-.8.79-1.7,1.41-2.69,1.86-1,.45-2.05.68-3.16.68-1.72,0-3.25-.42-4.61-1.27-1.36-.85-2.41-2.02-3.18-3.53-.77-1.51-1.15-3.23-1.15-5.18s.37-3.66,1.13-5.15c.75-1.48,1.8-2.65,3.15-3.49,1.34-.85,2.86-1.27,4.55-1.27,1.09,0,2.13.2,3.13.61,1,.41,1.9.97,2.71,1.68.81.72,1.45,1.56,1.91,2.54l2.54-1.29c-.58-1.23-1.4-2.31-2.47-3.25-1.07-.94-2.27-1.67-3.62-2.19-1.35-.52-2.75-.78-4.21-.78-2.29,0-4.33.54-6.1,1.62-1.77,1.08-3.16,2.56-4.17,4.45-1.01,1.89-1.51,4.06-1.51,6.52s.51,4.63,1.53,6.52c1.02,1.89,2.42,3.37,4.21,4.45,1.78,1.08,3.83,1.62,6.15,1.62,1.46,0,2.87-.28,4.22-.83M754.93,257.78v-19.64l14.53,19.64h2.96v-24.34h-2.96v19.54l-14.5-19.54h-2.99v24.34h2.96ZM740.64,257.78v-2.68h-11.51v-8.48h10.43v-2.64h-10.43v-7.86h11.44v-2.68h-14.39v24.34h14.46ZM711.2,256.88c1.65-.88,2.94-2.11,3.88-3.69.94-1.58,1.41-3.42,1.41-5.53v-2.29h-8.8v2.54h5.98c-.02,1.48-.38,2.81-1.08,3.96s-1.65,2.06-2.87,2.71c-1.22.65-2.6.97-4.16.97-1.88,0-3.55-.43-5.02-1.29-1.47-.86-2.62-2.03-3.44-3.53-.82-1.5-1.24-3.19-1.24-5.09s.42-3.7,1.25-5.18c.83-1.48,1.98-2.65,3.44-3.49,1.46-.85,3.13-1.27,5.01-1.27.95,0,1.9.16,2.84.49.94.32,1.8.78,2.59,1.37.79.59,1.41,1.26,1.88,2l2.33-1.6c-.62-.95-1.45-1.8-2.47-2.54-1.02-.74-2.14-1.33-3.37-1.75-1.23-.43-2.49-.64-3.79-.64-2.48,0-4.67.54-6.57,1.62s-3.39,2.56-4.47,4.45c-1.08,1.89-1.62,4.07-1.62,6.55s.54,4.6,1.62,6.49c1.08,1.89,2.57,3.37,4.47,4.45,1.9,1.08,4.09,1.62,6.57,1.62,2.11,0,3.99-.44,5.63-1.32M682.86,233.45h-2.96v24.34h2.96v-24.34ZM671.04,257.78v-2.68h-11.47v-21.66h-2.96v24.34h14.43ZM647.75,257.78v-2.68h-11.47v-21.66h-2.96v24.34h14.43ZM621.99,257.78v-2.68h-11.51v-8.48h10.43v-2.64h-10.43v-7.86h11.44v-2.68h-14.39v24.34h14.46ZM590.95,257.78v-21.66h7.75v-2.68h-18.43v2.68h7.75v21.66h2.92ZM553.96,257.78v-19.64l14.53,19.64h2.96v-24.34h-2.96v19.54l-14.5-19.54h-2.99v24.34h2.96ZM539.32,233.45h-2.96v24.34h2.96v-24.34ZM505.98,257.78v-21.66h7.75v-2.68h-18.43v2.68h7.75v21.66h2.92ZM486.48,233.45h-2.96v24.34h2.96v-24.34ZM458.39,257.78v-2.68h-11.51v-8.48h10.43v-2.64h-10.43v-7.86h11.44v-2.68h-14.39v24.34h14.46ZM425.05,257.78l10.08-24.34h-3.09l-8.62,21-8.62-21h-3.09l10.08,24.34h3.27ZM402.94,233.45h-2.96v24.34h2.96v-24.34ZM383.4,257.78v-21.66h7.75v-2.68h-18.43v2.68h7.75v21.66h2.92ZM359.78,257.36c1.36-.56,2.56-1.33,3.62-2.33,1.05-1,1.88-2.13,2.49-3.41l-2.57-1.29c-.47,1.02-1.1,1.92-1.9,2.71-.8.79-1.7,1.41-2.69,1.86-1,.45-2.05.68-3.16.68-1.72,0-3.25-.42-4.61-1.27-1.36-.85-2.41-2.02-3.18-3.53-.77-1.51-1.15-3.23-1.15-5.18s.37-3.66,1.13-5.15c.75-1.48,1.8-2.65,3.15-3.49,1.34-.85,2.86-1.27,4.55-1.27,1.09,0,2.13.2,3.13.61,1,.41,1.9.97,2.71,1.68.81.72,1.45,1.56,1.91,2.54l2.54-1.29c-.58-1.23-1.4-2.31-2.47-3.25-1.07-.94-2.27-1.67-3.62-2.19-1.35-.52-2.75-.78-4.21-.78-2.29,0-4.33.54-6.1,1.62-1.77,1.08-3.16,2.56-4.17,4.45-1.01,1.89-1.51,4.06-1.51,6.52s.51,4.63,1.53,6.52c1.02,1.89,2.42,3.37,4.21,4.45,1.78,1.08,3.83,1.62,6.15,1.62,1.46,0,2.87-.28,4.22-.83M333.96,257.78v-2.68h-11.51v-8.48h10.43v-2.64h-10.43v-7.86h11.44v-2.68h-14.39v24.34h14.46ZM310.64,257.78v-2.68h-11.47v-21.66h-2.96v24.34h14.43ZM287.34,257.78v-2.68h-11.47v-21.66h-2.96v24.34h14.43ZM246.39,254.25c-1.37-.84-2.43-2.01-3.2-3.49-.76-1.48-1.15-3.2-1.15-5.14s.38-3.63,1.15-5.13c.77-1.5,1.82-2.67,3.16-3.51,1.35-.85,2.88-1.27,4.62-1.27s3.28.42,4.63,1.27c1.34.85,2.4,2.02,3.16,3.51.76,1.49,1.15,3.2,1.15,5.13s-.38,3.66-1.13,5.14c-.75,1.48-1.8,2.65-3.13,3.49-1.33.85-2.86,1.27-4.57,1.27s-3.33-.42-4.69-1.27M257.22,256.6c1.77-1.07,3.16-2.55,4.16-4.45,1-1.9,1.49-4.08,1.49-6.54s-.5-4.63-1.49-6.52c-1-1.89-2.39-3.37-4.19-4.45-1.8-1.08-3.86-1.62-6.21-1.62s-4.4.53-6.19,1.6c-1.79,1.07-3.18,2.54-4.19,4.43-1.01,1.89-1.51,4.07-1.51,6.55s.51,4.64,1.53,6.54c1.02,1.9,2.43,3.38,4.24,4.45,1.81,1.07,3.88,1.6,6.22,1.6s4.36-.53,6.14-1.6M224.92,257.36c1.36-.56,2.56-1.33,3.62-2.33,1.06-1,1.88-2.13,2.49-3.41l-2.57-1.29c-.46,1.02-1.09,1.92-1.89,2.71-.8.79-1.7,1.41-2.69,1.86-1,.45-2.05.68-3.16.68-1.72,0-3.25-.42-4.61-1.27-1.36-.85-2.42-2.02-3.18-3.53-.77-1.51-1.15-3.23-1.15-5.18s.38-3.66,1.13-5.15c.75-1.48,1.8-2.65,3.15-3.49,1.34-.85,2.86-1.27,4.55-1.27,1.09,0,2.13.2,3.13.61,1,.41,1.9.97,2.71,1.68.81.72,1.45,1.56,1.91,2.54l2.54-1.29c-.58-1.23-1.4-2.31-2.47-3.25-1.07-.94-2.27-1.67-3.62-2.19-1.34-.52-2.75-.78-4.21-.78-2.29,0-4.33.54-6.1,1.62s-3.16,2.56-4.17,4.45-1.51,4.06-1.51,6.52.51,4.63,1.53,6.52c1.02,1.89,2.42,3.37,4.21,4.45,1.79,1.08,3.84,1.62,6.15,1.62,1.46,0,2.87-.28,4.22-.83"/></svg>