<?xml version="1.0" encoding="UTF-8"?>
<svg id="a" xmlns="http://www.w3.org/2000/svg" version="1.1" viewBox="0 0 410 100">
  <!-- Generator: Adobe Illustrator 29.6.0, SVG Export Plug-In . SVG Version: 2.1.1 Build 207)  -->
  <defs>
    <style>
      .st0 {
        fill: #063;
      }

      .st1 {
        fill: #52646d;
      }

      .st2 {
        fill: #1e1e1c;
      }

      .st3 {
        fill: #95c11f;
      }
    </style>
  </defs>
  <path class="st0" d="M36.7,50c0,11.9,4.3,22.9,11.5,31.3,7.2-8.5,11.5-19.4,11.5-31.3s-4.3-22.9-11.5-31.3c-7.2,8.5-11.5,19.4-11.5,31.3Z"/>
  <path class="st3" d="M45.3,22.5c.9-1.3,1.9-2.6,3-3.9C39.4,8.2,26.2,1.5,11.4,1.5H2.3v25.8h9.1c12.5,0,22.7,10.2,22.7,22.7s-.5,5.3-1.3,7.7c-3.2,8.7-11.5,15-21.3,15H2.3v25.8h9.1c14.8,0,28-6.7,36.9-17.1-7.2-8.5-11.5-19.4-11.5-31.3s3.2-19.7,8.6-27.5Z"/>
  <path class="st1" d="M85.2,27.4h9.1V1.5h-9.1c-14.8,0-28,6.6-36.9,17.1,4.9,5.8,8.5,12.8,10.3,20.5.8,3.5,1.2,7.1,1.2,10.9,0,11.9-4.3,22.9-11.5,31.3h0c8.9,10.5,22.1,17.1,36.9,17.1h9.1v-25.8h-9.1c-12.5,0-22.7-10.2-22.7-22.7s10.2-22.6,22.7-22.6h0Z"/>
  <path class="st2" d="M142.3,73.2c-14.1,0-18.3-10-18.3-23.2s4.8-23.2,18.4-23.2,18,9.9,18,23.2-4.6,23.2-18.1,23.2ZM142.3,29.3c-11.9,0-15,8.8-15,20.6s3.1,20.7,15,20.7,14.8-9.1,14.8-20.7-2.9-20.6-14.8-20.6Z"/>
  <path class="st2" d="M211.9,72.3l-23.7-40.9v40.9h-2.8V27.7h4.3l23.5,40.9V27.7h3v44.6h-4.4Z"/>
  <path class="st2" d="M243.1,72.3V27.7h3.2v44.6h-3.2Z"/>
  <path class="st2" d="M297.6,72.3l-15.3-20.6h-6.1v20.6h-3.2V27.7h12.6c7.1,0,13.7,2.8,13.7,11.5s-3.2,12.4-13.4,12.4l15.5,20.7h-3.9ZM285.9,30.2h-9.7v18.9h9.8c7.8,0,10-4.4,10-9.9s-3.7-9-10.1-9h0Z"/>
  <path class="st2" d="M338.7,52.2v20.1h-3.2v-19.8l-16-24.8h3.6l14.1,21.7,13.5-21.7h3.2l-15.2,24.6h0Z"/>
  <path class="st2" d="M400.2,72.3l-12.4-20.8-13.2,20.8h-3.5l14.9-23-13-21.6h3.7l11.3,18.8,11.8-18.8h3.5l-13.7,21.1,14.6,23.5h-4Z"/>
</svg>